<svg width="130" height="134" viewBox="0 0 130 134" fill="none" xmlns="http://www.w3.org/2000/svg">
<path d="M119.924 79.5033C113.88 81.6273 107.81 83.6857 101.719 85.6785C100.464 86.0877 99.2082 86.4969 97.9525 86.8998C96.6625 87.3153 95.3693 87.7276 94.0761 88.1368C91.0432 89.0988 88.004 90.0453 84.9585 90.9698C82.2472 91.7976 79.5329 92.6128 76.8123 93.4125C68.1413 95.9613 59.4297 98.3789 50.6837 100.656C48.0568 101.34 45.4267 102.012 42.7936 102.671C40.3166 103.292 37.8365 103.904 35.3533 104.501C35.1284 104.557 34.9035 104.61 34.6755 104.667C29.8215 105.835 24.955 106.959 20.0791 108.04C16.2683 108.89 12.4513 109.711 8.62811 110.505C7.06009 110.833 5.49206 111.154 3.92091 111.473C2.5934 95.9425 3.46487 78.4569 10.7678 64.6882C25.6952 36.5481 58.4895 28.2394 86.7264 41.4677C90.4153 43.1982 94.1886 45.3878 97.8057 47.9678C108.629 55.6861 118.084 66.8716 119.924 79.5033Z" fill="#E1E1E1"/>
<path d="M119.924 79.5033C113.879 81.6273 107.81 83.6857 101.719 85.6785C100.464 86.0877 99.2081 86.4969 97.9525 86.8998L90.6777 57.2292L88.9004 49.9763L97.8056 47.9678C108.629 55.6861 118.084 66.8716 119.924 79.5033Z" fill="#E1E1E1"/>
<path d="M94.0761 88.1368C91.0432 89.0988 88.0039 90.0452 84.9585 90.9698L75.6503 59.1595L85.124 56.1671L94.0761 88.1368Z" fill="#DFFDFF"/>
<path d="M101.719 85.6785C100.464 86.0877 99.2081 86.4969 97.9525 86.8998C96.6624 87.3153 95.3693 87.7276 94.0761 88.1368L85.124 56.1671L90.6777 57.2292L93.0953 57.6914L101.719 85.6785Z" fill="#71B4BD"/>
<path d="M35.3533 104.501C35.1284 104.557 34.9035 104.61 34.6754 104.667C29.8214 105.835 24.9549 106.959 20.0791 108.04C19.6543 104.804 19.2295 101.568 18.8078 98.3321C17.5708 88.8833 16.3339 79.4377 15.097 69.992C19.6761 68.5271 24.2084 67.0652 28.7875 65.6034C30.2525 72.6533 31.6269 79.8906 32.8294 87.1622C33.7884 92.947 34.6442 98.7537 35.3533 104.501Z" fill="#DFFDFF"/>
<path d="M76.8123 93.4125C68.1413 95.9613 59.4297 98.3789 50.6837 100.656C48.0568 101.34 45.4268 102.012 42.7936 102.671C40.3166 103.292 37.8365 103.904 35.3533 104.501C35.1284 104.557 34.9035 104.61 34.6755 104.667L32.0673 87.3559L28.7876 65.6034H41.6004L44.0586 80.9432L72.8204 75.2084L76.8123 93.4125Z" fill="#71B4BD"/>
<path d="M42.7936 102.671C40.3166 103.292 37.8365 103.904 35.3533 104.501C35.1284 104.557 34.9035 104.61 34.6755 104.667C29.8215 105.835 24.9549 106.959 20.0791 108.04C16.2683 108.89 12.4513 109.711 8.62811 110.505L6.64465 101.359L18.8078 98.3321L23.868 97.0733L22.681 89.7267L32.0673 87.3559L32.8294 87.1622L38.8173 85.6504L42.7936 102.671Z" fill="#528394"/>
<path d="M50.6837 100.656C48.0567 101.34 45.4267 102.012 42.7935 102.671L38.8173 85.6504L46.3638 85.0101L50.6837 100.656Z" fill="#5E98AB"/>
<path d="M73.6325 44.7037C72.6611 44.1914 72.2238 42.8233 72.8828 41.8925C73.5294 40.9804 75.0443 40.8805 75.8033 41.6957C75.6815 41.0523 75.5691 40.187 75.6378 39.5373C75.7034 38.8876 75.9876 38.2286 76.528 37.8569C77.0684 37.4883 77.8836 37.4977 78.3178 37.9881C78.3116 37.0947 78.5677 35.6329 79.0519 34.8832C79.5329 34.1305 80.3856 33.5776 81.2789 33.6244C82.6471 33.6994 83.5685 35.0519 84.0714 36.3263C84.5462 37.5351 84.8523 38.8095 84.9741 40.0996C85.0553 39.1719 85.9612 38.9376 86.8826 39.0782C87.854 39.225 88.2945 40.162 88.4225 41.0273C91.7179 40.5962 94.704 38.9001 97.9431 38.2192C98.3492 38.1349 98.8521 38.0849 99.102 38.416C99.33 38.719 99.1832 39.1812 98.8864 39.4186C96.4001 41.4333 92.4707 41.7769 89.4814 42.6984C85.7987 43.8322 82.1098 44.9411 78.4115 46.0218C75.6534 46.8277 72.8922 47.618 70.1278 48.3926C69.7249 48.5051 64.9302 50.1637 64.9053 49.3453C64.8553 47.6149 67.426 46.9995 68.6785 46.4123C70.2622 45.6689 72.0957 45.469 73.6325 44.7037Z" fill="#FBFAF6"/>
<path d="M2.3029 70.2919C1.76252 70.3793 1.2159 70.4481 0.659906 70.498C0.469369 70.5136 0.253843 70.5199 0.113283 70.3887C-0.0397711 70.2419 -0.0272763 69.9826 0.0882954 69.8046C0.203867 69.6266 0.39128 69.511 0.57557 69.4048C1.10033 69.1018 7.85971 65.8939 7.91905 66.0157C7.59733 65.3629 7.01322 64.5508 7.53798 63.8136C7.91593 63.2857 8.81552 63.2639 9.21533 63.773C8.95295 63.0483 9.20908 61.9051 9.49333 61.1867C9.77757 60.4683 10.4835 59.8904 11.255 59.9154C12.0265 59.9404 12.7418 60.6932 12.5919 61.4491C11.9172 60.5245 12.7981 58.7503 13.6758 58.0132C14.5535 57.2791 15.8966 57.2323 16.8993 57.7852C17.9019 58.338 18.5579 59.4125 18.7516 60.5401C18.9233 61.5522 18.6891 62.5642 18.4736 63.5387C19.8573 63.4138 21.1567 62.889 22.5029 62.5829C23.4088 62.3799 24.4302 62.2862 25.2079 62.7204C24.0179 63.8855 22.0656 64.1478 20.507 64.6695C16.9586 65.8533 13.4071 66.9996 9.88065 68.1866C7.33182 69.0456 4.90482 69.8702 2.3029 70.2919Z" fill="#FBFAF6"/>
<path d="M128.301 106.638C127.957 106.838 127.504 107.087 126.949 107.381C117.606 112.335 79.7984 129.839 75.972 131.417C75.2005 131.735 74.1791 132.213 73.0796 132.676C70.9993 133.544 68.6473 134.34 67.2479 133.85C62.7 132.251 47.1104 114.409 45.8453 110.47C45.3018 108.774 48.0662 107.409 49.7591 106.528C49.9622 106.422 50.1527 106.325 50.3183 106.232C55.3284 103.455 95.2131 87.8713 98.6147 87.081C99.8266 86.7968 101.076 86.3376 102.325 86.0159C104.287 85.5099 106.249 85.3475 108.06 86.7624C111.409 89.3831 122.704 97.8792 124.868 99.7658C126.436 101.131 131.643 104.682 128.301 106.638Z" fill="#EDD8D1"/>
<path d="M45.7922 97.5293C45.6235 98.963 45.2143 104.907 46.5793 106.547C47.354 107.478 59.8263 121.009 61.8441 122.699C63.0811 123.733 64.6491 125.107 66.3264 125.301C71.7364 125.926 123.484 99.5784 124.949 98.9349C126.018 98.4664 125.296 94.4776 125.081 92.6628L45.7922 97.5293Z" fill="#564953"/>
<path d="M122.966 98.001C113.089 102.546 102.878 107.678 92.858 112.476C91.6398 113.057 90.4247 113.637 89.2128 114.206C83.2593 117.017 77.3963 119.669 71.7365 121.965C71.6646 121.246 71.6802 119.622 71.5459 118.994C77.3151 116.327 83.1125 113.659 88.9223 110.992C100.255 105.788 111.537 100.415 122.791 95.2116C122.922 96.0487 122.966 97.0733 122.966 98.001Z" fill="#BFAFA7"/>
<path d="M89.2128 114.206C83.2593 117.017 77.3963 119.669 71.7365 121.965C71.6646 121.246 71.6802 119.622 71.5459 118.994C77.3151 116.327 83.1125 113.659 88.9223 110.992L89.2128 114.206Z" fill="#7A9C02"/>
<path d="M124.075 94.5057C123.75 94.6963 123.319 94.9336 122.791 95.2116C113.926 99.9126 78.0554 116.521 74.4259 118.017C73.695 118.32 72.7235 118.773 71.6803 119.21C69.7062 120.035 67.4759 120.79 66.1484 120.325C61.8348 118.807 47.0416 101.88 45.8422 98.1415C45.3268 96.5329 47.9506 95.2366 49.5561 94.4026C49.7498 94.3027 49.9309 94.209 50.0871 94.1215C54.8412 91.4884 92.6831 76.7014 95.9097 75.9518C97.0592 75.6832 98.2461 75.2459 99.4299 74.9397C101.292 74.4587 103.153 74.3057 104.871 75.6488C108.048 78.1351 118.765 86.1971 120.817 87.9868C122.304 89.28 127.245 92.6503 124.075 94.5057Z" fill="#77758A"/>
<path d="M122.791 95.2116C117.796 97.8604 104.221 104.292 92.6768 109.667C91.4117 110.258 90.1717 110.833 88.9722 111.389C88.9504 111.398 88.9285 111.41 88.9066 111.42C81.6381 114.79 75.7815 117.461 74.4258 118.017C73.6949 118.32 72.7235 118.773 71.6802 119.21C70.4808 117.726 69.2626 116.249 68.0288 114.784C67.3229 113.944 66.6076 113.103 65.886 112.269C60.6166 106.138 55.0973 100.178 49.5561 94.4026C49.7497 94.3027 49.9309 94.209 50.0871 94.1215C51.9674 93.0814 59.0267 90.1359 67.073 86.9092C68.3099 86.4157 69.5718 85.9128 70.84 85.4099C78.0679 82.5425 85.5551 79.6532 90.4872 77.8322C91.8615 77.323 93.0391 76.8951 93.9543 76.5765C94.9101 76.2454 95.5848 76.0267 95.9097 75.9518C97.0591 75.6832 98.2461 75.2459 99.4299 74.9397C100.604 75.9705 101.782 77.0013 102.969 78.0352C103.934 78.8754 104.902 79.7188 105.874 80.559C109.61 83.8013 113.38 87.0435 117.122 90.2827L120.598 93.3C121.332 93.9372 122.063 94.5744 122.791 95.2116Z" fill="#E2CEC5"/>
<path d="M97.2559 87.1466L80.8385 96.5173L70.84 85.4099C78.0679 82.5425 85.555 79.6532 90.4871 77.8322L97.2559 87.1466Z" fill="#8CB302"/>
<path d="M53.3418 106.044C53.8885 107.059 57.7554 111.282 58.3395 111.745C59.0829 112.332 61.8567 110.074 62.0503 109.577C62.244 109.071 57.4618 104.286 56.8184 103.811C56.2155 103.367 52.8671 105.163 53.3418 106.044Z" fill="#403A44"/>
<path d="M54.0884 106.316C54.0884 106.316 58.2208 110.808 58.6113 111.039C59.0017 111.27 61.032 109.752 61.2288 109.439C61.4256 109.127 57.0495 104.792 56.7778 104.598C56.506 104.404 53.7229 105.888 54.0884 106.316Z" fill="#5C606C"/>
<path d="M114.245 85.2819C112.746 83.9169 111.246 82.5519 109.747 81.1869C109.3 80.7808 108.638 81.443 109.085 81.8491C110.584 83.2141 112.083 84.5791 113.583 85.944C114.026 86.3501 114.692 85.6879 114.245 85.2819Z" fill="#BDCBD8"/>
<path d="M120.598 93.3C120.598 93.3 103.59 105.507 93.3952 93.806L83.6715 99.6627L92.6768 109.667C91.4117 110.258 90.1717 110.833 88.9722 111.389L85.149 107.116L68.0288 114.784C67.3229 113.944 66.6076 113.103 65.886 112.269L82.7657 104.448L67.073 86.9092C68.3099 86.4157 69.5718 85.9128 70.84 85.4099L80.8385 96.5173C85.3926 93.8997 97.2559 87.1466 97.2559 87.1466L90.4872 77.8322C91.8615 77.323 93.0391 76.8951 93.9543 76.5765L96.8061 80.5528L102.969 78.0352C103.934 78.8754 104.902 79.7188 105.874 80.559L98.9083 83.4858L102.416 88.3742L96.9373 91.6726C99.786 94.2871 107.073 98.3945 117.946 90.998L120.598 93.3Z" fill="#FFFFFD"/>
<path d="M92.858 112.476C91.6398 113.057 90.4247 113.638 89.2128 114.206L88.9535 111.332L92.6706 109.636L92.858 112.476Z" fill="#D9D9D7"/>
<path d="M88.9535 111.335L88.9067 111.42C81.6381 114.79 75.7815 117.461 74.4259 118.017C73.6949 118.32 72.7235 118.773 71.6802 119.21C70.4808 117.726 69.2626 116.249 68.0288 114.784L85.149 107.116L88.9535 111.335Z" fill="#8CB302"/>
<path d="M60.1137 91.7632L66.3265 88.8646L73.6856 97.5293L67.6634 100.266L60.1137 91.7632Z" fill="#B99D88"/>
<path d="M69.7218 103.742L72.7235 107.79L78.7895 104.582L75.8783 101.359L69.7218 103.742Z" fill="#B99D88"/>
<path d="M63.3747 107.116L68.0288 104.582L70.6182 108.671L66.0453 110.992L63.3747 107.116Z" fill="#B99D88"/>
<path d="M86.1736 100.266L89.2128 98.5476L90.9057 101.359L88.1601 102.921L86.1736 100.266Z" fill="#B99D88"/>
<path d="M88.9535 103.742L94.2605 100.734L99.2581 105.498L92.858 108.309L88.9535 103.742Z" fill="#B99D88"/>
<path d="M101.601 84.3354L105.505 82.4519L107.223 85.2725L103.006 87.1747L101.601 84.3354Z" fill="#B99D88"/>
<path d="M50.0215 106.716C49.353 106.047 48.6846 105.382 48.0162 104.713C47.5882 104.286 46.926 104.951 47.354 105.376C48.0224 106.044 48.6909 106.709 49.3593 107.378C49.7841 107.803 50.4463 107.14 50.0215 106.716Z" fill="#362F34"/>
<path d="M50.7399 107.606C50.1371 107.606 50.1371 108.543 50.7399 108.543C51.3428 108.543 51.3428 107.606 50.7399 107.606Z" fill="#362F34"/>
<path d="M60.3324 117.311C60.2168 117.948 60.0481 118.907 59.8763 119.913C61.7005 121.571 63.6558 123.083 65.6736 124.392C65.9048 123.502 66.0047 122.508 65.986 121.59C63.9963 120.309 62.1065 118.876 60.3324 117.311Z" fill="#61525E"/>
<path d="M68.2787 124.354C68.2037 123.392 68.0944 122.387 68.0226 121.421C67.6665 121.565 67.1542 121.599 66.7731 121.543C66.8044 122.48 66.8356 123.417 66.8668 124.354C67.1917 124.504 67.9257 124.423 68.2787 124.354Z" fill="#61525E"/>
<path d="M122.413 91.5071C122.388 91.504 122.363 91.5009 122.335 91.4977C122.091 91.4696 121.857 91.732 121.866 91.9663C121.879 92.2443 122.073 92.4067 122.335 92.4348C122.36 92.4379 122.385 92.441 122.413 92.4442C122.657 92.4723 122.891 92.2099 122.882 91.9756C122.869 91.6976 122.672 91.5352 122.413 91.5071Z" fill="#BDCBD8"/>
<path d="M64.621 63.2545C64.1962 64.0854 63.8245 64.9319 63.4996 65.8002C62.9748 63.7106 62.0284 61.624 61.1726 59.7311C59.9887 57.1167 58.5394 54.621 56.7777 52.3533C53.5417 48.1833 49.2905 44.9036 44.2866 43.1575C43.5682 42.9077 43.2652 44.0415 43.9742 44.2914C48.8626 46.025 53.0169 49.3641 56.1093 53.4965C57.6429 55.5456 58.9236 57.782 59.9918 60.106C61.0601 62.433 61.638 64.9381 62.6094 67.2808C61.4381 66.8185 60.2386 66.3156 59.0204 66.1001C58.5706 66.0189 58.2583 66.6155 58.6956 66.8716C60.0543 67.6744 61.6911 68.1116 63.1654 68.6614C63.4434 68.7645 63.762 68.5458 63.8369 68.2803C64.268 66.7279 64.8427 65.2473 65.5799 63.8168C65.9016 63.1795 64.9458 62.6173 64.621 63.2545Z" fill="#71B4BD"/>
<path d="M26.9696 10.1041C26.954 10.001 26.7978 9.96349 26.7322 10.0416C26.1637 10.7131 26.0575 11.7096 25.8545 12.5467C25.6171 13.5243 25.3204 14.5239 25.2517 15.5297C25.2329 15.8139 25.6265 15.8233 25.7171 15.5921C26.0919 14.6145 26.2699 13.5431 26.5354 12.5279C26.7385 11.7345 27.1008 10.9193 26.9696 10.1041Z" fill="#593D2D"/>
<path d="M36.8839 11.8439C35.6875 10.229 33.4292 9.46373 31.2802 9.31692C28.4628 9.12638 26.9853 9.97287 26.673 10.3165C26.3419 9.82918 23.665 8.20181 21.6097 7.76763C19.8199 7.38968 17.599 7.79262 16.4683 8.39547C16.4777 8.23305 16.4933 8.0675 16.5151 7.9082C17.068 3.68515 21.5097 -0.503545 28.2535 0.0493246C33.701 0.49287 36.9495 5.56865 37.1275 9.75109C37.1556 10.407 37.0119 11.2535 36.8839 11.8439Z" fill="#E2342B"/>
<path d="M36.8839 11.8439C35.6875 10.229 33.4292 9.46373 31.2802 9.31692C28.4628 9.12639 26.9853 9.97287 26.673 10.3165C26.3419 9.82919 23.665 8.20181 21.6097 7.76764C19.8199 7.38969 17.599 7.79263 16.4683 8.39547C16.4683 8.39547 17.446 5.93099 19.4888 5.57178C21.5316 5.20945 23.0965 6.0653 23.4463 6.9399C23.4463 6.9399 24.9456 5.60301 27.0946 5.43746C29.2436 5.27192 31.5207 6.80246 31.6863 8.08624C31.6863 8.08624 33.4198 6.62754 34.8754 7.0461C36.331 7.46153 37.0088 10.1166 36.8839 11.8439Z" fill="#851F1A"/>
<path d="M36.712 11.8314C34.6911 12.3124 32.6857 12.8528 30.6898 13.4244C29.2155 13.8461 27.635 14.2022 26.195 14.7863C28.4158 12.8778 30.3056 10.2415 31.9861 7.9207C32.1641 7.67394 31.7612 7.44904 31.58 7.68331C30.4899 9.1139 29.3841 10.5257 28.2066 11.8845C27.3726 12.8434 26.4293 13.7336 25.6296 14.7207C25.6265 14.7176 25.6234 14.7176 25.6203 14.7176C25.4422 13.4307 25.1517 12.1625 24.8362 10.9006C24.4864 9.50434 24.1834 7.98005 23.4525 6.7275C23.3463 6.54633 23.1089 6.67752 23.137 6.86181C23.3432 8.27991 23.9492 9.66052 24.3334 11.0411C24.6645 12.2312 24.9175 13.4369 25.2048 14.6332C24.2927 13.6149 23.1683 12.8153 22.0594 12.0126C20.2946 10.7319 18.5485 9.28257 16.6244 8.24555C16.4495 8.15184 16.2527 8.38298 16.4058 8.52979C18.9952 10.9849 22.3062 12.5592 24.805 15.1174C22.5373 16.3137 20.3852 17.8349 18.2362 19.2124C16.1371 20.5555 14.1131 21.9736 12.467 23.8633C12.114 24.2694 12.7918 24.7567 13.1416 24.3569C16.4557 20.5524 21.3254 18.6345 25.2829 15.6203C25.3454 15.6765 25.4235 15.6921 25.4984 15.6765C28.2847 18.9843 30.5086 22.5889 32.4765 26.4403C32.667 26.8151 33.2449 26.559 33.0762 26.1685C31.3926 22.2672 28.9843 18.6407 26.2481 15.3922C27.8973 15.033 29.531 14.3833 31.1427 13.9242C33.045 13.3807 34.9597 12.884 36.8744 12.3874C37.2243 12.2937 37.0712 11.7439 36.712 11.8314Z" fill="#75513B"/>
<path d="M3.75226 43.4262C9.14664 45.8969 17.5865 49.5046 23.2995 52.1128C25.158 51.8535 26.9447 51.5287 28.6658 51.1695C30.3181 50.8259 31.9111 50.4479 33.4479 50.0606C35.9593 49.4296 38.3175 48.7768 40.5446 48.2021C34.5224 45.7376 25.8171 42.5859 19.3763 40.2464C14.7316 40.3557 7.75978 41.9675 3.75226 43.4262Z" fill="#AA7445"/>
<path d="M8.272 42.2704C9.58077 42.8264 10.7927 43.3543 12.0515 44.0134C13.2135 43.7042 14.3661 43.0951 15.528 42.7827C14.6722 42.3017 13.6789 41.7238 12.823 41.2428C11.2238 41.3959 9.82129 41.8331 8.272 42.2704Z" fill="#875B37"/>
<path d="M3.75226 43.4262C5.2297 43.0357 6.7415 42.6422 8.27205 42.2705C9.77448 41.9019 11.2988 41.5552 12.8231 41.2459C15.0189 40.8055 17.2179 40.4432 19.3732 40.2464C20.2884 34.1711 21.2379 28.33 21.3566 21.68C19.3232 22.111 17.221 22.6045 15.1033 23.1106C13.529 23.4854 11.9485 23.8696 10.3804 24.2382C8.90613 24.5817 7.44743 24.916 6.02308 25.219C5.46397 31.2287 4.31138 37.4102 3.75226 43.4262Z" fill="#CC955D"/>
<path d="M19.3731 40.2433C20.1197 33.8212 20.6788 28.4019 21.3566 21.6768C28.4315 24.36 35.347 27.2961 42.4219 29.9793C42.5093 35.9234 41.2131 43.1669 40.5415 48.199C32.6139 45.6501 27.0134 43.0919 19.3731 40.2433Z" fill="#FECB94"/>
<path d="M10.0962 26.9275C10.6147 26.7995 13.3009 26.4465 14.7409 25.9811C14.8627 25.0222 14.9814 24.0664 15.1001 23.1074C13.5258 23.4823 11.9453 23.8665 10.3773 24.235C10.2929 25.0659 10.2149 25.8218 10.0962 26.9275Z" fill="#B3804F"/>
<path d="M8.272 42.2705C9.77443 41.9019 11.2987 41.5552 12.823 41.2459C12.9636 40.3838 13.101 39.5217 13.2416 38.6596C11.6954 38.7971 10.1961 38.9814 8.64995 39.1157C8.4844 40.0871 8.35322 41.2116 8.272 42.2705Z" fill="#B3804F"/>
<path d="M26.1169 49.8794C26.7541 50.2511 27.988 50.7415 28.6626 51.1695C30.315 50.8259 31.908 50.4479 33.4448 50.0606C32.3766 49.5983 30.7492 49.0767 29.6778 48.6144C28.1473 48.9861 27.2633 49.5577 26.1169 49.8794Z" fill="#875B37"/>
<path d="M37.7241 44.7287C38.0427 44.282 38.5768 43.7791 39.0516 43.3824C39.2952 43.9978 39.4451 44.5944 39.5014 45.2191C39.3421 45.2035 39.1859 45.1785 39.036 45.1473C38.9579 45.4877 38.8798 45.8251 38.8048 46.1655C38.4956 46.0656 38.1895 45.9656 37.8802 45.8626C37.9677 45.5471 38.102 45.2285 38.2113 44.913C38.0489 44.8568 37.8865 44.7943 37.7241 44.7287Z" fill="#875B37"/>
<path d="M35.9467 42.386C35.8062 42.6796 35.65 43.0576 35.6438 43.3824C35.6344 43.7073 35.7968 44.0634 36.1029 44.1727C36.434 44.2945 36.812 44.0852 37.0025 43.7916C37.193 43.4949 37.2399 43.1325 37.2836 42.7827C36.8713 42.6703 36.3559 42.4985 35.9467 42.386Z" fill="#875B37"/>
<path d="M35.4595 44.8693C35.575 44.9036 35.6906 44.938 35.8062 44.9723C35.8843 44.6694 35.9592 44.3664 36.0373 44.0634C36.0779 43.9072 36.3091 44.0009 36.2716 44.154C36.1966 44.4507 36.1217 44.7474 36.0436 45.0442C36.1373 45.0723 36.2341 45.1004 36.3278 45.1316C36.4809 45.1785 36.3903 45.4128 36.2372 45.3659C35.9467 45.2784 35.6594 45.191 35.3689 45.1035C35.2127 45.0567 35.3033 44.8224 35.4595 44.8693Z" fill="#875B37"/>
<path d="M11.7735 41.0085C14.9533 42.9764 18.2455 44.6319 21.6565 46.1655C21.6627 46.1687 21.6721 46.1718 21.6783 46.1749C21.8939 46.0968 22.1094 46.0187 22.3187 45.9438C24.4989 45.1441 26.9571 44.1321 29.2842 43.9322C29.5122 43.9134 29.6403 44.2321 29.406 44.332C27.2351 45.2722 24.8206 45.7282 22.5904 46.5435C22.5748 46.5497 22.5592 46.556 22.5436 46.5622C25.4172 47.8398 28.3315 49.0923 31.0365 50.7041C31.2645 50.8415 31.0521 51.2382 30.8116 51.1164C27.8317 49.6139 24.8113 48.2302 21.772 46.8652C19.8323 47.6586 17.9394 48.6925 15.9622 49.3016C15.7123 49.3797 15.4375 49.0548 15.6967 48.8705C17.196 47.8179 19.0827 47.1057 20.8787 46.4591C20.86 46.4498 20.8412 46.4435 20.8256 46.4342C17.6083 44.9911 14.3286 43.5011 11.4206 41.4864C11.1051 41.2678 11.4518 40.8086 11.7735 41.0085Z" fill="#593D2D"/>
<path d="M29.8558 39.5373C30.1963 38.0005 30.5149 36.4606 30.8147 34.9145C31.1146 33.3683 31.3926 31.8221 31.6519 30.2697C31.8986 28.7923 32.0267 27.243 32.4671 25.8062C32.5421 25.5594 32.87 25.6875 32.8763 25.9061C32.9044 27.5397 32.5171 29.2202 32.2485 30.8289C31.9892 32.3813 31.7112 33.9305 31.4082 35.4736C31.1084 37.0166 30.7866 38.5597 30.4462 40.0933C30.1307 41.5114 29.9495 43.195 29.2967 44.4975C29.1718 44.7443 28.8188 44.6662 28.825 44.382C28.8594 42.7858 29.5091 41.1054 29.8558 39.5373Z" fill="#6B4A36"/>
<path d="M12.9324 23.6884C12.9668 23.5635 13.1885 23.5822 13.1948 23.7165C13.3166 26.559 12.7575 29.492 12.5451 32.3282C12.4326 33.7994 12.3389 35.2674 12.2577 36.7417C12.1734 38.2754 12.239 39.884 11.9922 41.399C11.9516 41.6551 11.5393 41.702 11.5112 41.4146C11.2394 38.5222 11.7048 35.4049 11.9204 32.5125C12.1328 29.62 12.1515 26.4871 12.9324 23.6884Z" fill="#614331"/>
<path d="M16.5026 37.9287C16.8243 37.7632 17.2148 37.8069 17.5709 37.7882C17.9769 37.7663 18.4049 37.7038 18.8078 37.7725C18.9078 37.7882 18.9171 37.9443 18.8172 37.9724C18.4236 38.0818 17.9926 38.0661 17.5865 38.088C17.2304 38.1068 16.8493 38.1911 16.5089 38.063C16.4558 38.0412 16.4526 37.9537 16.5026 37.9287Z" fill="#8C663F"/>
<path d="M14.6347 38.0443C14.8658 37.9662 15.1063 37.9537 15.35 37.9381C15.5593 37.9256 15.7935 37.8787 15.9872 37.9693C16.0247 37.9881 16.0278 38.0443 15.9934 38.0693C15.8091 38.1817 15.5749 38.1598 15.3656 38.1692C15.1251 38.1817 14.8814 38.1942 14.6441 38.1411C14.591 38.1317 14.5847 38.0599 14.6347 38.0443Z" fill="#8C663F"/>
<path d="M18.1956 38.5503C18.3143 38.5409 18.4361 38.5347 18.5548 38.5316C18.6422 38.5284 18.7235 38.5253 18.7859 38.5784C18.7922 38.5784 18.7984 38.5815 18.8047 38.5815C18.889 38.594 18.8984 38.7315 18.814 38.7502C18.8078 38.7502 18.8015 38.7533 18.7953 38.7533C18.7391 38.8127 18.6579 38.8158 18.5704 38.8252C18.4517 38.8345 18.3299 38.8408 18.2112 38.847C18.0207 38.8533 18.005 38.5628 18.1956 38.5503Z" fill="#8C663F"/>
<path d="M14.8128 38.8252C15.2938 38.7221 15.7779 38.6815 16.2683 38.6502C16.7525 38.619 17.2648 38.5378 17.7427 38.6377C17.827 38.6565 17.8332 38.7783 17.752 38.8064C17.2897 38.9564 16.7681 38.9314 16.2871 38.9501C15.7967 38.972 15.3094 38.9845 14.819 38.9314C14.7628 38.9282 14.7597 38.8377 14.8128 38.8252Z" fill="#8C663F"/>
<path d="M17.068 39.3812C17.6209 39.3905 18.205 39.3 18.7516 39.3593C18.8578 39.3718 18.8578 39.5373 18.7641 39.5655C18.2424 39.7123 17.6177 39.6654 17.0836 39.6529C16.9087 39.6467 16.8899 39.378 17.068 39.3812Z" fill="#8C663F"/>
<path d="M16.134 39.3874C16.2028 39.3843 16.2715 39.378 16.3371 39.3812C16.3683 39.3812 16.4027 39.3843 16.4308 39.3905C16.4683 39.3968 16.5026 39.4186 16.5401 39.4249C16.6276 39.4343 16.6369 39.5811 16.5495 39.5998C16.512 39.6092 16.4807 39.6342 16.4464 39.6435C16.4183 39.6529 16.3839 39.6592 16.3527 39.6654C16.2871 39.6748 16.2152 39.6748 16.1497 39.681C15.9622 39.6935 15.9466 39.3937 16.134 39.3874Z" fill="#8C663F"/>
<path d="M31.6831 8.08625C32.5858 5.40311 31.755 0.149287 28.0723 0.0180973C24.3896 -0.109969 23.4463 6.93678 23.4463 6.93678C23.4463 6.93678 24.9456 5.5999 27.0946 5.43435C29.2436 5.27192 31.5176 6.80246 31.6831 8.08625Z" fill="#E2C4C2"/>
<path d="M72.2831 87.7838C71.346 89.6111 69.4938 93.147 67.0324 92.8658C65.733 92.7159 64.6679 91.6851 63.7808 90.4701C62.9843 89.3831 62.3346 88.1493 61.7879 87.284C59.9794 84.4104 58.9299 79.8781 60.3448 76.6764C61.1539 74.8398 62.5813 73.4842 64.2462 72.7501C66.214 71.8818 68.5192 71.8787 70.5433 72.9688C70.9774 73.1999 71.396 73.4842 71.7989 73.8215C75.7659 77.145 74.3196 83.8075 72.2831 87.7838Z" fill="#E2342B"/>
<path d="M71.7989 73.8215C71.396 73.4842 70.9774 73.1999 70.5433 72.9688C69.375 72.3409 68.1163 72.0786 66.8793 72.1317C67.9132 72.1754 68.9503 72.444 69.9248 72.9688C70.359 73.1999 70.7775 73.4842 71.1805 73.8215C75.1474 77.145 73.7012 83.8075 71.6646 87.7838C70.8025 89.4643 69.1658 92.5878 66.9949 92.8596C67.0074 92.8627 67.0199 92.8627 67.0324 92.8658C69.4937 93.147 71.346 89.6111 72.2831 87.7838C74.3196 83.8075 75.7659 77.145 71.7989 73.8215Z" fill="#E27971"/>
<path d="M71.3148 83.2828C70.7494 84.0105 69.9873 84.5603 69.1377 84.9101C68.7847 85.0569 68.4161 85.1663 68.0413 85.2381C67.0574 85.4349 66.0235 85.3693 65.0864 85.0101C62.9312 84.1855 61.4475 81.874 61.5818 79.572C61.7911 75.9549 65.2707 74.0308 68.2943 74.718C68.6629 74.8023 69.0221 74.9241 69.3719 75.0865C69.7093 75.2427 70.0373 75.4395 70.3434 75.68C70.7494 75.9892 71.1274 76.3735 71.4522 76.8295C72.7954 78.7068 72.7329 81.4648 71.3148 83.2828Z" fill="#FED772"/>
<path d="M65.0864 85.0101C62.9312 84.1855 61.4475 81.874 61.5818 79.572C61.7911 75.9549 65.2707 74.0308 68.2943 74.718C69.0752 77.7634 66.8512 82.1895 65.0864 85.0101Z" fill="#F3C452"/>
<path d="M69.1377 84.9101C68.7847 85.0569 68.4161 85.1663 68.0413 85.2381C69.1595 81.949 69.6062 78.5381 69.3719 75.0865C69.7093 75.2427 70.0372 75.4395 70.3434 75.68C70.487 78.8098 70.081 81.9146 69.1377 84.9101Z" fill="#F3C452"/>
</svg>
