<svg width="93" height="76" viewBox="0 0 93 76" fill="none" xmlns="http://www.w3.org/2000/svg">
<path fill-rule="evenodd" clip-rule="evenodd" d="M80.0301 12.0749C80.7681 14.0947 80.6199 13.6509 81.409 15.7189C79.9812 15.9649 79.487 16.5569 79.4381 17.2459C78.749 21.8257 75.9424 20.4957 69.7866 21.7768C76.0402 44.9236 36.5912 72.0101 15.2174 55.1182L16.4014 49.5034C28.5157 50.1924 35.9525 50.3903 41.0731 40.4417C46.1478 30.4932 54.8145 23.4016 60.3301 19.7577C61.3987 17.3102 59.8125 16.3079 58.6797 14.9656L62.447 12.7151L58.0315 14.0042C57.8672 13.6764 57.757 13.3173 57.7212 12.9122C57.1781 5.86958 58.0643 6.11558 64.1718 3.30671C70.2786 0.54894 76.4833 -2.4541 77.5672 4.34178C88.3516 3.35927 90.0276 5.62432 80.0301 12.0749Z" fill="#E5221D"/>
<path fill-rule="evenodd" clip-rule="evenodd" d="M18.4197 49.8487C17.7795 51.8677 17.1882 53.8868 16.597 55.8569C6.15644 55.4627 3.84175 66.0026 0 58.5658C1.82197 57.0883 3.64466 55.562 5.46663 54.0839C6.79661 52.951 6.89442 53.2962 8.66748 53.2962C8.37185 52.6561 8.12586 52.0648 7.83023 51.4246C8.4704 50.5385 9.11057 49.7012 9.75074 48.864C12.6085 49.1596 15.5137 49.5041 18.4197 49.8487Z" fill="#E5221D"/>
<path fill-rule="evenodd" clip-rule="evenodd" d="M42.0096 51.6217C53.5342 51.375 62.1527 54.7241 60.5271 70.7794C62.6447 70.7794 64.7134 70.7794 66.8799 70.7794C74.2182 51.5721 66.9288 43.4952 53.6809 39.9498C49.791 43.8404 45.9003 47.7311 42.0096 51.6217Z" fill="#E5221D"/>
<path fill-rule="evenodd" clip-rule="evenodd" d="M60.971 69.1049C62.7929 68.0216 64.2215 69.0063 66.0434 68.0216C68.0625 75.1131 73.7262 71.2225 74.3175 76H65.1573C64.9602 75.8029 64.7631 75.6058 64.4674 75.3598L64.2704 76H60.1826C59.8381 73.8328 62.5469 71.0261 60.971 69.1049Z" fill="#E5221D"/>
<path fill-rule="evenodd" clip-rule="evenodd" d="M65.2061 20.6935C66.5849 21.7279 67.6193 26.4062 68.8507 27.1945C100.222 46.9434 95.1992 -5.70383 85.6937 11.5333C84.3637 10.499 82.6899 11.1391 83.0834 13.602C83.625 16.7043 82.6892 22.1221 80.03 23.9937C78.8482 24.782 77.2722 23.8951 75.9919 23.5506L65.2061 20.6935Z" fill="#E5221D"/>
<path fill-rule="evenodd" clip-rule="evenodd" d="M44.571 21.3337H57.8686C59.9373 21.3337 61.6608 23.0578 61.6608 25.0769V38.1278C61.6608 40.1964 59.9373 41.9199 57.8686 41.9199H44.571C42.5024 41.9199 40.7789 40.1964 40.7789 38.1278V25.0769C40.7789 23.0578 42.5024 21.3337 44.571 21.3337Z" fill="#EDBB12"/>
<path fill-rule="evenodd" clip-rule="evenodd" d="M62.4484 21.0388C20.0446 7.64262 42.5513 56.4978 46.0485 36.4036C47.6742 36.9452 49.053 35.7634 47.8216 33.5962C46.3442 30.8384 45.4084 25.3718 47.3785 22.7614C48.2158 21.5797 49.9888 21.9242 51.3181 21.8256L62.4484 21.0388Z" fill="#E5221D"/>
<path fill-rule="evenodd" clip-rule="evenodd" d="M12.4604 27.8347H35.9518C35.8044 29.0661 35.8044 30.3953 35.9518 31.6268H12.4604C11.426 31.6268 10.6384 30.7895 10.6384 29.7552C10.6384 28.7208 11.4268 27.8347 12.4604 27.8347ZM17.0898 21.3337H38.9067C37.8234 22.4666 37.0847 23.698 36.592 25.0769H17.0898C16.0554 25.0769 15.2182 24.2885 15.2182 23.2542C15.2182 22.1709 16.0554 21.3337 17.0898 21.3337ZM23.0491 33.8926H36.3467C36.6912 35.2714 37.1343 36.5518 37.6271 37.6847H23.0491C22.0148 37.6847 21.1775 36.7985 21.1775 35.7642C21.1775 34.7787 22.0148 33.8926 23.0491 33.8926Z" fill="#EDBB12"/>
<path fill-rule="evenodd" clip-rule="evenodd" d="M27.6786 44.4806H36.4942C37.4797 43.4463 38.3658 42.166 39.1535 40.6885H27.6786C26.6442 40.6885 25.7581 41.5258 25.7581 42.609C25.7581 43.6434 26.6442 44.4806 27.6786 44.4806Z" fill="#EDBB12"/>
</svg>
